<svg xmlns="http://www.w3.org/2000/svg" width="45" height="52" viewBox="0 0 45 52">
    <g fill="none" fill-rule="evenodd" stroke="#0091EA" stroke-linecap="round" stroke-linejoin="round">
        <path stroke-width="2" d="M20.422 1S13.692 11.384 1 8.692v16.49s0 4.759 2.885 8.364c2.884 3.606 8.941 11.106 18.027 17.451h.28c9.086-6.345 15.143-13.845 18.027-17.45 2.885-3.606 2.885-8.365 2.885-8.365V8.692C30.412 11.384 23.682 1 23.682 1h-3.27.01z"/>
        <path stroke-width="2" d="M25.29 27.204a6.018 6.018 0 1 0-6.364.009l-1.873 10.955H27.15l-1.844-10.964h-.014z"/>
        <path d="M8.677 12.981s7.415-.277 12.005-5.386"/>
    </g>
</svg>
